<?xml version="1.0" encoding="utf-8" ?>
<svg xmlns="http://www.w3.org/2000/svg" xmlns:xlink="http://www.w3.org/1999/xlink" width="1024" height="1024">
	<path fill="#883448" d="M0 0L1024 0L1024 579.071L1024 580.153L1024 1024L656.929 1024L653.235 1024L606.621 1024L603.205 1024L386.312 1024L384.271 1024L0 1024L0 575.844L0 573.629L0 414.333L0 413.457L0 0ZM0 0L0 413.457C24.4211 415.296 35.7339 408.839 57.2811 399.644C64.8087 396.431 72.4419 393.835 80.2901 391.53C60.6912 386.852 40.9691 385.295 26.9566 368.933C44.2435 381.47 57.3497 383.335 77.8942 385.947C73.7405 382.287 68.8312 378.686 65.2881 374.472C72.2236 377.999 77.9675 383.565 85.0472 386.948C103.325 395.682 129.022 393.904 147.701 387.37C153.967 385.178 159.901 381.924 165.985 379.272C171.673 376.793 177.607 374.822 183.457 372.763C165.284 357.287 161.201 354.515 137.741 349.211C130.652 347.608 123.583 346.042 117.008 342.835C106.711 337.813 98.5214 330.192 98.1301 318.037C97.9931 313.781 98.2759 309.119 96.7789 305.062C94.8146 299.739 90.2124 296.685 85.1885 294.575C79.0932 292.015 72.6828 290.281 66.0495 290.086C62.7108 289.988 59.3202 290.25 56.0108 290.675C51.7509 291.223 33.4106 295.426 30.9355 294.259C42.1173 289.935 52.0219 289.801 63.2693 283.744C57.3411 271.646 50.4273 260.517 39.8501 251.913C35.2833 248.198 29.9967 244.934 25.8488 240.766C25.7217 240.639 25.5982 240.507 25.4729 240.378C40.3982 248.95 49.5095 254.084 59.7674 268.612C63.5357 273.95 66.8661 279.541 70.7987 284.774Q76.4506 286.296 82.0847 287.882C91.9914 290.702 99.3158 294.248 104.532 303.608C107.037 300.43 109.311 297.21 111.4 293.745C109.139 287.566 105.767 281.653 102.759 275.8C108.544 282.62 112.736 288.698 115.702 297.209C113.405 301.682 109.61 305.646 107.913 310.384C106.541 314.213 107.127 318.683 109.03 322.232C119.007 340.834 148.629 337.236 165.071 344.41C177.04 349.633 185.807 360.574 199.201 362.722C206.931 363.962 214.654 362.563 222.339 361.675C236.692 360.016 249.414 360.91 263.215 365.117C257.31 355.421 253.789 344.182 247.001 335.035C228.777 310.477 204.045 327.899 180.26 324.13C176.092 323.47 172.227 321.958 168.462 320.094C160.398 316.103 153.33 310.248 145.255 306.151C143.453 305.236 136.156 302.819 135.286 301.609C146.008 301.833 163.243 317.289 178.193 319.243C199.254 321.997 216.45 310.174 238.181 319.882C233.209 316.11 228.59 311.846 223.71 307.949C217.752 303.191 211.491 298.821 205.6 293.976C197.468 287.287 189.47 278.738 179.785 274.328C168.314 269.106 155.11 271.047 143.974 264.621C138.852 261.666 134.287 257.57 129.663 253.892C119.608 245.894 108.38 238.963 95.8472 235.655C97.4917 235.174 100.081 235.765 101.817 236.04C105.493 236.624 108.644 238.02 112.047 239.452C117.438 241.722 122.597 244.266 127.404 247.622C134.53 252.596 140.84 258.614 149.093 261.764C158.565 265.378 169.003 264.271 178.501 267.671C173.376 255.594 171.073 240.392 165.316 229.616C160.571 220.731 152.851 216.174 148.181 205.922Q156.691 213.434 165.278 220.856C167.889 203.464 168.665 196.466 165.385 178.974L165.766 178.503C170.86 190.664 171.776 200.375 171.242 213.403C171.042 218.274 170.624 223.263 171.351 228.11C172.249 234.091 174.77 239.69 176.63 245.413C178.466 251.063 180.151 256.835 182.972 262.092C194.313 283.224 219.738 293.644 238.452 307.253C241.916 293.921 245.04 278.981 254.156 268.157C258.453 263.055 263.898 259.844 270.595 259.326C259.652 252.229 248.135 240.345 235.926 236.161C230.983 234.467 225.529 234.481 220.487 233.127C209.546 230.189 197.402 220.224 191.745 210.539C204.871 223.684 214.664 229.496 233.136 231.34C229.848 225.879 226.952 219.765 224.954 213.706C222.926 207.553 222.194 200.821 218.575 195.311C211.992 185.286 197.235 169.771 186.018 165.67C180.318 163.586 174.065 163.134 168.155 161.83C158.585 159.719 145.937 154.389 140.431 145.756L141.133 145.702C149.344 152.609 159.905 156.428 170.374 158.25C178.337 159.636 186.247 160.559 193.455 164.5C203.22 169.84 211.684 179.262 219.396 187.207C217.332 180.017 215.907 172.643 213.909 165.432C208.95 147.525 201.582 127.878 190.776 112.7C186.914 107.275 182.365 102.388 177.754 97.5998C197.481 111.267 207.518 133.506 216.491 155.001C219.727 146.046 223.291 137.774 229.372 130.37C224.703 140.946 217.574 152.006 219.193 163.975C220.052 170.32 222.506 176.861 224.023 183.123C229.969 207.661 233.25 221.168 254.406 236.848C253.011 229.133 252.305 221.659 252.468 213.805C252.715 201.822 254.519 190.079 251.68 178.218C250.035 171.343 246.599 164.822 243.929 158.294Q244.648 159.207 245.331 160.148Q246.014 161.088 246.659 162.054Q247.305 163.021 247.913 164.011Q248.52 165.002 249.088 166.016Q249.657 167.03 250.185 168.065Q250.713 169.1 251.201 170.155Q251.689 171.21 252.135 172.283Q252.581 173.356 252.985 174.446Q253.388 175.536 253.75 176.641Q254.111 177.745 254.428 178.863Q254.746 179.981 255.02 181.111Q255.294 182.24 255.523 183.38Q255.753 184.519 255.938 185.666Q256.122 186.814 256.263 187.967Q256.403 189.121 256.497 190.28Q256.592 191.438 256.642 192.599C261.178 180.443 265.37 168.743 266.728 155.731C267.799 146.255 266.826 134.925 265.179 125.53L265.26 126.661L265.526 126.183C268.322 132.512 269.67 147.763 269.422 154.772C269.44 166.502 266.041 177.843 262.83 189.016C268.886 182.328 275.655 174.837 283.091 169.701L283.38 169.795C269.105 186.599 256.278 195.355 258.275 219.446C259.145 229.944 262.277 238.311 270.512 245.158C281.343 254.163 293.687 260.905 303.462 271.276C303.482 271.075 303.499 270.873 303.521 270.672C305.223 255.049 311.034 249.819 299.451 235.205Q298.047 233.424 296.615 231.665C294.106 229.973 291.674 227.116 289.414 225.017C282.632 218.718 275.51 212.48 269.263 205.66C276.895 208.889 291.369 223.263 297.859 229.521C303.122 234.683 308.075 239.983 309.783 247.39Q311.255 243.687 312.279 239.836Q313.303 235.985 313.865 232.04C318.032 201.974 302.286 180.877 285.236 158.462C292.535 164.205 300.585 172.898 305.386 180.949C303.434 169.549 304.126 157.788 301.352 146.522C299.398 138.586 295.402 131.294 292.334 123.755C312.672 148.944 304.05 175.409 316.168 201.5C323.765 191.485 324.247 175.54 325.663 163.471C326.809 172.885 326.237 182.081 324.677 191.424C331.741 181.251 337.953 170.499 345.17 160.429C342.893 165.687 340.453 170.833 337.478 175.738C331.494 185.607 322.431 195.405 320.915 207.253C320.262 212.361 321.22 217.654 321.598 222.765C330.801 213.467 336.401 201.841 342.561 190.512C340.655 199.271 337.06 207.24 332.014 214.648C327.837 220.781 322.813 226.722 320.594 233.913C318.967 239.189 317.773 244.612 316.245 249.921C312.155 264.134 308.739 275.456 316.051 289.384C319.233 295.444 323.557 301.01 328.214 306.003C344.82 323.809 361.843 325.609 383.881 332.428C374.808 313.235 366.685 300.595 351.999 285.187C344.981 277.822 336.863 270.597 331.215 262.096C346.398 273.386 359.945 287.51 372.824 301.309C367.794 284.376 369.574 265.474 368.025 247.966C366.097 226.172 361.436 205.607 355.549 184.604C359.148 191.579 362.061 198.806 364.928 206.102C371.188 198.807 379.767 192.749 380.426 182.264C381.35 167.58 367.978 154.255 359.172 143.984C369.988 151.705 377.811 160.053 383.933 171.936C384.168 167.511 383.932 162.87 384.507 158.489L384.63 157.607L384.597 157.646L385.081 158.241L384.278 158.551L385.057 158.746C385.518 161.107 385.368 163.74 385.444 166.153C385.722 174.987 386.499 181.676 390.75 189.568C390.568 187.529 390.62 184.993 389.988 183.062C389.941 182.92 389.875 182.786 389.818 182.648L390.261 182.377L390.652 182.55C394.844 197.463 400.485 204.387 399.601 220.775C403.391 217.775 407.436 215.174 411.473 212.526Q412.388 210.624 413.254 208.699C419.524 194.593 414.446 182.652 409.329 169.209C415.142 178.091 419.58 187.912 419.742 198.729C425.983 189.041 432.494 179.313 439.809 170.398C434.643 184.713 424.48 196.506 418.174 210.356C435.491 205.441 442.795 202.768 455.024 189.272C440.521 213.439 429.998 207.656 408.884 220.372C399.757 225.869 393.586 233.763 386.528 241.521C384.146 244.139 381.474 246.568 379.303 249.36C371.937 258.837 377.113 286.244 378.798 297.727C388.437 279.541 398.73 261.926 410.599 245.086C404.811 257.868 383.985 290.653 383.531 301.782C382.682 322.595 410.125 352.36 423.885 367.067C421.988 351.024 427.151 339.653 426.34 325.471C425.885 317.506 420.868 310.47 419.023 302.796C415.75 289.177 419.581 249.073 423.643 235.382C423.048 249.338 423.205 263.633 423.69 277.592C427.203 272.067 431.736 267.166 435.672 261.937C444.434 250.295 446.806 236.069 448.508 221.915L448.417 221.839L449.021 222.148C449.252 225.326 448.893 228.665 448.701 231.847C447.905 244.977 445.193 256.08 436.821 266.506C432.94 271.34 427.673 276.885 425.136 282.543C422.728 287.913 424.859 297.481 426.888 302.809C427.596 304.666 428.212 306.434 430.148 307.291C430.708 307.138 430.828 307.139 431.397 306.788C434.481 304.884 437.744 300.449 440.19 297.688C444.331 293.015 449.848 287.235 452.282 281.512C456.964 270.503 455.931 254.551 457.323 242.551C458.575 231.771 460.817 221.452 463.958 211.074C463.069 222.44 461.31 233.73 460.527 245.12C460.011 252.624 460.635 260.181 460.039 267.672C467.944 259.82 476.017 252.492 483.383 244.094L482.529 243.83L484.336 243.071C483.881 248.421 464.387 266.724 460.427 273.691C458.265 277.497 457.396 281.264 456.422 285.487C467.304 278.283 477.901 270.083 488.249 262.113C484.005 267.645 479.525 272.629 474.249 277.207C463.866 286.217 443.679 298.4 438.284 310.637C437.549 312.304 437.494 314.018 437.474 315.821C437.393 322.9 438.835 330.006 438.876 337.095C438.937 347.859 437.304 358.309 438.74 369.084C439.766 376.784 441.924 384.047 444.824 391.234C450.512 386.578 455.864 381.95 459.533 375.463C469.523 357.797 459.237 340.152 454.458 322.732C460.738 333.182 464.326 344.351 467.428 356.055C473.804 344.239 480.042 332.092 488.645 321.708C484.737 332.912 478.078 342.939 473.615 353.916C469.749 363.426 467.843 373.487 463.548 382.896C472.347 375.486 484.668 367.03 494.355 360.659C481.595 375.57 465.252 387.571 448.473 397.651C454.359 410.54 461.675 422.718 467.876 435.45C471.182 442.238 473.85 449.228 476.539 456.275C482.174 448.235 491.39 441.762 497.765 432.341C530.395 384.124 491.209 343.024 490.814 295.134C490.62 271.696 503.629 246.914 499.139 224.237C496.424 210.531 485.848 200.925 476.578 191.303C467.128 181.494 458.941 169.587 447.627 161.832C418.779 142.059 383.84 142.438 351.207 133.908C329.824 128.319 310.919 117.716 291.39 107.738C284.764 104.352 277.256 101.293 271.126 97.1183C270.991 97.0263 270.858 96.9308 270.725 96.837C284.199 101.516 297.333 107.022 310.508 112.471C298.818 98.3427 288.693 80.9147 287.899 62.1602C290.681 71.554 293.529 80.6026 298.458 89.1419C313.209 114.699 329.766 121.92 357.101 129.258C352.609 119.598 347.505 110.354 341.248 101.717C338.41 97.8004 334.731 94.3027 332.292 90.1437C345.043 100.727 355.603 115.134 363.186 129.877C374.105 130.624 385.354 132.666 396.192 134.281C389.241 125.418 384.038 114.655 378.638 104.821C373.93 96.2459 368.924 87.8013 364.516 79.067C374.709 89.9811 381.756 103.662 389.847 116.138C389.901 108.785 389.629 101.712 388.49 94.4226C392.371 103.299 391.23 113.228 394.912 121.951C400.347 134.824 415.477 138.08 427.241 142.412Q437.153 146.075 446.833 150.316C441.779 134.095 438.502 106.599 427.845 93.8194C421.708 86.4594 413.839 80.5801 407.533 73.3208C399.13 63.6482 393.079 53.4042 382.555 45.5428Q376.07 40.7359 368.863 37.1016C363.892 34.5769 358.071 32.3544 353.755 28.8258C353.623 28.7176 353.494 28.6047 353.364 28.4941C370.196 35.5485 385.72 42.3002 399.298 54.9078C399.574 41.9227 400.785 29.0195 404.013 16.4031C403.879 28.0219 402.324 40.1015 403.665 51.6791C405.633 68.681 419.347 78.9109 431.791 88.8322L432.477 88.7342C430.477 78.7711 439.706 52.755 445.148 44.0368C445.494 45.4231 440.64 60.3481 439.902 62.7871C443.169 58.9333 446.795 55.0745 449.552 50.84C455.689 41.4111 459.449 28.2342 461.866 17.2578L462.027 16.5038L462.614 16.1974L462.276 16.1057C462.53 15.4081 462.315 15.6432 462.816 15.3157C463.143 24.952 458.757 36.0511 456.09 45.3259C467.957 37.1507 480.439 32.8608 493.915 28.2846C487.588 32.4611 480.409 35.299 473.748 38.8952C461.642 45.4301 448.55 56.7256 441.846 68.8765C434.328 82.5006 438.888 94.2095 442.886 108.012L448.994 129.721C454.986 119.619 461.56 109.972 467.409 99.7323C465.804 105.428 464.234 110.931 461.319 116.124C464.735 113.938 468.154 111.483 471.845 109.792C477.492 105.859 485.786 101.981 492.653 101.084C490.812 97.057 489.443 92.9564 487.335 89.0182C481.325 77.7931 472.878 68.6079 465.067 58.6988C473.145 65.0682 479.824 72.2863 485.633 80.7514C485.104 70.2679 487.208 59.8578 488.801 49.5356C490.175 58.4848 487.51 67.3422 488.471 76.2826C489.447 85.3653 494.821 94.8196 497.191 103.94C500.727 92.8812 505.85 81.5745 512.133 71.8391C509.198 82.5676 500.835 101.642 500.202 111.268C499.949 115.118 500.712 119.004 501.686 122.714C504.392 133.019 508.148 142.699 510.22 153.224C515.256 145.864 521.418 139.6 525.814 131.71C538.643 108.684 527.639 87.4456 519.002 65.2183C514.387 53.3398 510.015 41.0073 506.568 28.7312C512.244 38.7633 516.999 49.28 521.838 59.7313C522.998 57.1358 524.336 54.4657 525.035 51.7031C528.178 39.2815 523.904 23.6075 521.94 11.1782C526.013 18.5186 528.046 33.6989 528.758 42.357C532.855 32.2485 535.753 21.4068 540.357 11.5568C539.077 18.9387 537.584 26.3522 535.359 33.5141C532.331 43.2597 527.312 53.8579 526.567 64.0454C526.412 66.1564 526.119 69.8813 527.553 71.5169C528.702 70.9968 530.986 66.6391 531.771 65.4268C535.971 57.5801 542.193 50.5238 547.934 43.7512C543.901 52.0059 538.163 58.9935 533.745 66.9651C528.64 79.4004 534.776 89.2262 537.548 101.254C538.697 106.24 538.85 110.778 538.577 115.873C544.997 109.462 552.572 104.656 557.66 96.9225C562.792 89.1238 564.519 79.5781 565.687 70.4782C568.534 48.2941 570.508 30.4601 585.698 12.749C580.29 24.2096 574.004 36.248 573.373 49.1298C578.325 44.1657 584.851 39.474 591.011 36.1819C596.775 30.7453 614.416 24.4117 622.353 23.1797L622.025 23.621C612.844 26.5822 603.334 31.3884 595.182 36.5077C589.223 40.7564 579.05 48.1395 575.097 54.1827C573.257 56.9956 572.296 60.3899 571.745 63.6829C570.791 69.3834 571.297 75.0659 571.12 80.7942C587.285 62.2696 596.81 54.4813 621.022 48.8526C626.614 47.5526 632.59 45.9801 638.296 45.4563L638.54 45.267L639.275 45.9975L639.535 45.78L638.569 45.4473L639.61 45.6463C582.957 58.6931 585.954 80.8952 552.449 118.952C558.275 125.142 563.872 131.716 569.21 138.338C574.684 145.13 579.95 153.813 587.112 158.873C590.781 161.464 594.472 162.453 598.754 163.52C596.788 149.676 590.878 135.907 585.853 122.931C582.752 114.924 579.816 106.713 575.996 99.0146C583.851 107.288 587.439 120.136 592.756 130.13C595.526 118.986 599.667 108.67 603.649 97.9379L604.128 98.0275L604.23 97.585C603.272 104.754 600.798 111.656 599.233 118.711C595.325 136.327 599.107 153.273 610.024 167.766C613.984 173.024 619.099 177.129 624.245 181.164C621.274 172.909 621.87 164.382 619.713 156.078C618.599 151.79 616.716 147.852 614.838 143.861C608.899 131.236 607.045 125.716 607.563 111.748C609.731 124.848 615.754 135.364 621.817 146.989C623.056 136.05 626.542 125.538 628.377 114.708C630.086 104.627 629.929 94.1307 630.186 83.9305C634.52 99.3032 631.515 117.453 628.797 132.902C627.628 139.549 626.175 146.273 626.248 153.052C626.312 159.067 628.649 164.687 629.74 170.535C632.087 183.116 631.981 186.561 640.91 196.718C652.398 171.096 651.806 158.772 647.907 131.199C653.423 146.994 655.062 161.439 653.899 178.159C661.137 169.37 665.891 159.702 670.489 149.374C669.015 160.783 666.616 171.469 658.906 180.433C656.646 183.062 653.178 185.22 651.371 188.138C649.025 191.926 648.021 196.832 645.926 200.888C652.112 207.069 658.533 212.706 665.362 218.163C674.671 199.961 686.365 179.511 689.215 159.073C685.785 151.235 678.463 146.856 674.655 139.453C671.053 132.45 672.171 123.723 667.815 117.125C665.549 113.693 662.438 110.807 659.514 107.944C651.968 100.555 645.57 93.4201 641.737 83.4054C649.658 93.713 657.901 102.343 667.485 111.095C666.508 103.732 666.86 96.0822 666.907 88.6692C666.976 77.8297 667.045 67.0029 667.6 56.1753C671.7 76.0815 667.268 98.9837 674.563 117.815Q678.177 107.305 681.004 96.5567C682.251 91.6409 683.084 86.5247 684.551 81.6832C684.457 88.826 684.606 96.1348 683.218 103.172C680.167 118.636 670.827 128.633 684.636 142.734C687.341 145.496 690.261 148.074 693.123 150.673C703.392 119.078 708.055 101.624 692.267 70.5841C685.846 57.9595 675.7 44.6986 680.544 29.7867C682.733 23.0467 687.291 17.7462 691.959 12.5845C686.697 23.4802 681.008 33.9881 685.394 46.3073C688.401 54.7522 693.959 62.7014 699.184 69.937C701.388 59.7806 706.942 51.2151 714.071 43.8435C708.788 53.2617 700.375 65.6938 703.413 76.9951C704.987 82.8506 708.428 88.5253 711.161 93.9155C717.809 75.5564 728.774 55.1454 739.226 38.555C734.818 51.8975 727.931 63.8919 722.62 76.8264C719.875 83.5119 717.943 90.2949 716.263 97.313C733.171 83.6575 751.949 81.7455 767.176 63.8626C767.374 52.1033 767.746 40.5897 769.52 28.9439C770.404 38.1039 770.88 47.296 771.809 56.4545C780.242 46.8273 786.41 36.6779 790.996 24.7173C792.493 20.8127 793.514 16.4823 795.236 12.731L795.669 12.7354C791.939 39.0348 777.391 64.0999 756.033 80.0081Q750.036 84.4545 743.308 87.6881C737.898 90.2924 732.083 92.2361 727.511 96.2693C722.397 100.781 718.129 106.198 715.45 112.502C709.696 126.038 708.371 141.801 704.709 156.046C700.767 171.383 695.052 186.156 689.942 201.124C701.925 190.372 713.407 179.1 725.427 168.402C728.017 144.789 729.228 125.429 728.939 101.714C733.379 117.301 732.554 146.866 731.253 163.611C736.274 160.627 742.051 158.049 746.313 154.015C758.453 142.523 764.448 121.976 772.577 107.524C777.742 98.3419 784.305 90.423 791.684 82.95C784.289 94.8529 776.596 105.592 772.582 119.256C786.351 110.32 798.659 99.8147 811.565 89.72C816.108 86.1672 820.625 82.2243 825.469 79.1021C813.135 91.9995 799.38 104.384 785.691 115.839C779.919 120.669 772.72 123.736 767.889 129.634C762.21 136.567 759.927 144.951 755.493 152.524C765.171 152.311 776.801 152.45 783.903 144.699C787.957 140.273 790.609 134.218 793.669 129.081C798.3 121.308 803.824 115.069 810.418 108.928C807.762 114.233 803.362 118.982 799.932 123.833C795.869 129.58 792.584 135.859 789.486 142.165C795.669 138.146 831.218 114.638 835.918 114.509C831.984 118.588 826.557 121.245 821.83 124.306C815.057 128.692 808.247 133.17 801.702 137.887C795.1 142.645 784.978 152.603 778.058 155.308C766.851 159.69 755.898 156.384 744.791 163.327C727.656 174.038 712.283 189.253 698.998 204.415C692.011 212.39 685.407 220.766 677.861 228.228Q682.799 233.207 687.846 238.076C696.043 222.419 707.276 209.21 723.996 202.655C707.922 215.323 699.206 223.683 692.553 243.647C694.951 249.771 696.925 255.544 697.883 262.085C698.027 261.991 698.169 261.896 698.314 261.804C711.139 253.638 731.174 249.701 741.993 240.679C747.399 236.171 751.71 230.246 756.135 224.803C761.498 218.207 765.878 212.648 767.867 204.18C772.086 186.21 771.89 173.025 780.562 155.374C778.128 169.921 776.521 184.665 775.12 199.348C780.77 191.809 786.253 184.176 791.766 176.537C794.534 172.701 797.62 169.015 800.138 165.011C804.616 157.892 807.834 149.996 812.147 142.766C810.082 149.731 808.098 156.884 805.427 163.639L826.874 150.381C834.064 136.818 840.65 123.636 852.748 113.729C844.584 124.707 837.745 135.276 831.745 147.629C841.294 143.2 850.968 137.499 860.978 134.299C851.345 142.13 840.22 146.308 830.024 153.029C825.006 156.337 821.086 161.191 816.008 164.433C812.68 166.559 807.955 167.814 804.98 170.269C797.727 176.254 783.692 199.808 777.137 208.735C770.414 217.891 762.244 225.869 756.742 235.898C773.582 235.504 795.636 235.098 808.235 222.1C820.083 209.875 825.61 189.978 832.087 174.498Q835.856 165.612 840.532 157.167C838.96 164.533 836.163 171.782 833.897 178.969C829.26 193.68 824.856 208.005 818.793 222.217C822.159 223.339 825.499 224.326 828.945 225.171C832.553 214.781 836.904 205.609 843.321 196.609C847.95 190.117 853.53 183.814 856.821 176.506C861.295 166.573 862.752 148.554 865.508 136.997C869.723 119.322 874.251 102.724 872.384 84.335C872.302 83.5276 871.888 82.0477 872.44 81.4979L872.523 81.5538L872.736 82.8316L873.443 82.8262C877.573 99.2535 875.64 120.887 871.676 137.329C878.726 131.727 885.458 126.399 893.381 122.033C886.57 130.788 877.053 136.25 869.657 144.317C867.897 150.261 868.3 157.008 868.429 163.172C876.008 157.66 882.436 154.633 891.582 152.474C900.157 140.258 909.1 133.233 922.992 127.98C912.134 134.078 903.473 141.385 896.698 151.896C906.561 151.427 916.454 151.311 926.308 150.769C926.147 150.818 925.985 150.869 925.823 150.917C906.627 156.563 879.245 154.886 868.032 174.759C865.442 179.349 863.289 184.418 860.148 188.657C847.971 205.089 844.708 202.507 837.295 223.739C866.892 219.27 872.31 204.903 890.052 183.315C894.416 178.005 899.296 172.668 905.458 169.44C891.333 184.73 879.85 202.268 865.862 217.632C868.731 217.322 871.843 217.17 874.587 216.232C885.118 212.636 892.49 199.787 900.75 192.681C900.806 194.494 886.918 210.654 884.394 213.342Q883.539 214.235 882.629 215.07C888.43 214.577 894.436 214.324 900.157 213.231C909.309 211.482 936.481 202.258 943.486 203.753C939.288 205.178 934.87 205.874 930.602 207.093C923.269 209.189 916.093 211.712 908.906 214.254C918.128 215.998 927.521 216.719 936.794 218.161C924.439 219.307 912.113 217.778 899.772 217.912C892.963 217.987 886.119 219.162 879.392 220.168Q874.567 226.374 869.9 232.7C874.184 231.333 890.352 226.175 894.32 227.557L895.229 227.293C891.304 229.253 885.976 230.221 881.739 231.705C864.611 237.706 862.311 241.872 849.554 254.41C862.922 255.448 877.403 260.826 887.467 269.835C896.419 267.35 905.433 265.084 914.621 263.647C923.097 262.321 931.865 261.874 940.109 259.371C948.861 256.714 956.55 251.66 964.907 248.089C976.831 242.993 989.323 239.883 1001.93 237.01C997.045 239.557 991.625 241.209 986.462 243.099C976.775 246.646 967.531 250.423 958.678 255.809C973.617 255.836 987.376 256.993 1001.85 261.101C986.405 260.512 968.488 257.129 953.314 260.666C944.091 262.816 935.471 266.847 926.395 269.417C935.921 271.474 944.647 275.641 954.045 277.983C967.396 281.309 981.081 281.591 994.004 286.696C982.758 285.109 970.806 285.751 959.787 283.192C963.711 287.106 967.61 291.06 971.719 294.782C974.726 297.506 977.964 299.933 980.827 302.812L980.71 303.431L981.209 303.739L981.43 303.49L981.422 303.494C977.851 303.331 958.768 284.735 953.261 281.633C945.752 277.403 925.357 271.873 916.924 272.044C908.639 272.213 900.627 275.771 892.588 277.422C900.538 285.168 909.511 294.94 919.575 299.797C930.064 304.86 940.868 307.201 950.8 313.719Q941.663 310.405 932.297 307.808C928.299 306.736 924.044 306.018 920.162 304.618C930.012 320.225 946.895 329.153 960.072 341.612C949.472 336.37 929.956 321.439 921.585 313.161C917.73 309.349 915.053 304.477 910.973 300.88C902.822 293.694 893.547 287.829 885.848 280.089C871.103 285.517 855.814 290.234 841.569 296.904C861.482 297.932 878.947 299.751 895.106 312.526Q892.334 311.367 889.505 310.352Q886.677 309.336 883.801 308.467Q880.924 307.598 878.007 306.877Q875.09 306.157 872.139 305.587Q869.189 305.016 866.213 304.598Q863.238 304.18 860.245 303.914Q857.251 303.649 854.248 303.537Q851.246 303.426 848.241 303.468C853.949 312.46 859.068 322.238 867.261 329.256C869.25 326.515 871.195 323.794 873.492 321.298C872.329 324.02 870.674 326.368 869.02 328.808C874.685 330.125 880.52 331.233 886.04 333.072C880.171 332.398 874.271 331.557 868.364 331.335C856.9 352.102 855.667 364.687 858.597 387.976C868.797 381.817 878.14 375.756 886.063 366.69C890.434 361.688 894.294 356.139 899.174 351.617C895.01 359.418 889.84 367.473 883.948 374.119L884.582 373.932C891.653 371.899 899.002 370.876 906.14 369.102C917.231 366.345 926.171 356.579 934.19 348.915C930.589 355.194 924.146 361.381 918.466 365.814Q933.093 363.098 947.844 361.168C933.305 366.747 914.84 369.704 899.478 373.684C893.358 375.269 887.167 376.725 881.429 379.448C872.785 383.549 864.822 390.008 857.018 395.55C854.14 403.294 851.507 411.479 847.4 418.679C841.339 429.304 822.875 447.754 823.068 459.543L823.776 460.86C826.62 461.216 830.254 459.89 832.972 459.088C844.206 445.584 856.143 432.932 867.908 419.915C875.784 411.201 882.717 401.79 892.11 394.562C901.328 387.468 913.087 381.751 924.453 379.23C904.107 391.154 892.398 398.735 876.951 417.379C887.636 413.969 898.238 410.55 908.424 405.813C917.229 401.718 925.67 396.699 934.277 392.198C924.011 400.998 913.536 408.114 901.462 414.231C907.87 417.487 913.831 421.993 919.743 426.08C911.965 423.244 904.916 418.529 897.179 415.874C879.786 420.559 872.525 423.889 860.749 437.511Q853.618 445.802 847.296 454.725C860.78 452.839 874.472 453.028 887.85 450.956C911.297 447.324 933.189 431.757 947.296 413.15C959.207 397.439 963.286 382.266 972.489 365.741C977.093 357.475 984.089 350.669 989.242 342.739C989.14 334.916 989.866 327.806 991.573 320.186C991.331 326.796 990.834 333.644 991.983 340.194C1000.19 332.313 1007.87 322.56 1017.95 317.105C1008.65 326.726 995.476 340.81 988.605 352.037C996.616 351.939 1004.23 352.372 1012.15 353.581C1003.02 354.319 993.881 354.337 984.958 356.73C980.915 361.328 977.825 366.099 974.781 371.403C982.903 369.516 989.963 368.93 998.279 369.439C988.984 372.282 983.469 370.593 973.02 375.66C969.18 383.848 965.352 392.369 962.199 400.847C972.31 393.936 981.66 392.832 993.561 390.986C984.717 394.473 975.861 396.38 967.336 400.842C979.475 400.044 993.976 403.241 1005.56 406.668C991.016 406.246 977.147 403.676 962.512 404.56C958.054 410.777 953.415 416.813 947.698 421.938C964.208 422.064 980.487 426.206 996.226 426.055Q1003.32 425.998 1010.25 424.505C1013.8 423.739 1019.05 421.437 1022.56 421.684C1021.45 422.746 1018.79 423.659 1017.31 424.265C1006.61 428.665 995.315 430.577 983.757 430.479C1000.98 444.285 999.258 448.623 1022.12 453.826C985.339 456.329 992.791 420.533 943.134 428.305C928.983 441.602 923.22 451.832 903.658 458.591C922.153 463.081 941.839 462.838 960.14 468.053C946.278 467.546 932.694 468.071 918.841 466.631C905.001 465.192 891.171 461.435 877.235 461.42C868.318 461.41 859.355 462.412 850.581 463.964C845.429 464.876 840.073 466.346 834.851 466.591C827.485 477.779 820.035 488.87 813.045 500.299C827.649 497.529 841.72 494.698 855.066 487.809C862.176 484.139 868.486 479.263 876.029 476.427C862.299 487.587 848.451 497.496 831.568 503.405C824.141 506.004 815.62 507.136 808.773 511.091C801.171 515.481 775.204 546.529 771.109 554.705C784.529 557.022 789.681 555.619 800.715 547.799C805.713 544.257 810.326 540.116 815.135 536.318C824.015 529.305 832.537 523.791 839.356 514.551C838.346 517.172 837.428 519.891 836.222 522.427C851.364 516.989 867.115 516.382 882.87 514.057C886.532 513.516 891.78 511.84 895.312 512.113C890.953 516.572 851.193 522.512 841.606 526.178C825.71 532.256 816.09 545.049 803.03 555.012C812.97 555.005 822.893 554.352 832.822 553.937C840.581 553.612 849.021 554.064 856.572 552.143C868.833 549.024 878.735 539.844 889.267 533.302C895.401 529.491 902.118 526.708 908.364 523.096C922.347 515.011 936.453 503.806 947.839 492.355C954.674 485.482 967.4 468.23 974.262 463.679L974.415 464.225C966.818 473.998 959.932 484.338 952.203 494.001C963.574 492.459 974.122 492.588 985.54 493.37C962.394 497.338 952.974 493.164 933.95 509.482C927.483 515.03 921.201 521.274 914.25 526.2C923.368 525.256 932.455 525.502 941.581 524.936C950.548 524.379 959.451 523.01 968.426 522.59C978.802 515.34 987.431 507.495 995.659 497.89L995.532 498.089L996.421 497.042C994.574 504.771 981.217 517.198 975.443 522.509C993.832 522.819 1009.53 519.207 1024 507.455C1015.87 518.219 1002.66 524.638 989.432 526.448C981.346 527.555 973.132 527.226 965.009 527.909C958.382 528.466 951.858 530.18 945.251 530.727C956.873 537.404 967.185 544.63 976.715 554.129C985.835 549.518 991.611 542.091 999.08 535.426C995.132 542.658 990.85 548.495 984.982 554.28C997.01 556.48 1008.88 557.256 1020.98 555.106C1006.87 561.618 994.094 560.855 979.114 557.674C988.686 569.505 993.979 576.581 1010.17 578.207C1014.76 578.669 1019.39 578.866 1024 579.071L1024 0L0 0ZM0 575.844L0 1024L384.271 1024C394.092 1016.35 406.836 1018.52 417.518 1012.55C426.18 1007.72 430.895 996.922 440.051 993.429C453.367 988.347 463.899 991.265 478.477 983.312C463.875 984.405 449.281 984.983 434.881 987.876C429.288 988.999 423.619 990.404 418.23 992.271C407.574 995.963 396.053 1002.05 384.515 1001.74C380.057 1001.62 375.975 1000.4 371.716 999.211C356.461 994.939 356.647 1000.91 343.745 1002.53C338.586 1003.18 333.493 1002.84 328.321 1002.65C315.654 1002.19 306.28 1005.25 295.304 1011.43C306.995 999.406 312.994 997.478 329.533 996.853C333.02 996.721 336.995 996.795 340.309 995.623C347.59 993.048 351.971 986.537 360.239 985.948C369.923 985.257 379.516 989.552 389.17 987.676C392.813 986.968 395.92 985.423 399.099 983.6C403.154 981.275 407.034 978.789 411.435 977.144C425.593 971.851 440.615 970.504 453.435 961.688C466.925 952.411 474.419 937.742 477.234 921.918C479.031 911.819 479.255 901.498 479.957 891.286C480.821 878.717 482.473 866.21 482.962 853.614C483.433 841.455 482.659 829.296 483.348 817.129C484.331 799.762 488.63 782.722 487.242 765.21C486.547 756.438 484.188 747.847 479.058 740.604C474.162 733.694 467.26 727.526 460.461 722.54C441.464 708.609 400.056 687.796 376.785 684.153C368.107 682.794 359.126 684.201 350.634 686.081C345.161 687.292 338.186 688.72 333.272 691.444C324.931 696.069 320.231 705.897 314.829 713.357C311.196 718.376 307.094 723.316 302.497 727.484C291.914 737.08 278.902 741.698 267.512 749.928Q267.926 750.806 268.354 751.676C273.012 761.134 279.49 769.186 289.808 772.601C304.21 777.367 316.77 773.204 330.425 768.235C335.795 766.281 341.353 764.376 346.441 761.758L347.136 761.395L347.186 761.611C337.372 768.916 324.925 772.927 314.332 779.183C330.849 787.636 346.889 790.011 365.301 788.518C368.26 788.278 372.283 788.422 375.094 787.625C375.419 787.532 375.731 787.398 376.05 787.285L376.385 787.921C358.704 791.509 341.017 793.897 323.398 788.26C317.414 786.346 311.958 783.157 305.833 781.596C301.487 780.488 296.715 780.421 292.26 779.92C288.113 779.454 284.216 778.521 280.199 777.406C283.765 785.66 285.815 793.806 286.964 802.71C283.511 792.864 280.018 782.449 272.88 774.595C269.096 770.431 264.812 766.574 261.53 761.99L261.117 761.404C259.354 773.477 259.841 783.419 249.088 791.661C244.962 794.824 240.564 797.629 236.635 801.045L236.136 801.486C233.48 810.054 232.4 817.533 227.158 825.132C226.066 826.714 225.396 828.182 223.439 828.547L224.309 828.7L223.718 828.874L223.539 828.248C229.474 821.024 230.912 810.4 232.022 801.404C225.791 803.749 219.788 806.13 213.843 809.139L213.909 808.711C221.734 801.6 231.845 797.907 240.409 791.749C245.73 787.923 251.108 781.038 251.893 774.363C252.09 772.687 251.763 771.904 250.729 770.612C248.166 769.864 233.2 776.505 229.289 777.608Q225.388 778.728 221.364 779.252C213.785 780.241 206.042 778.758 198.551 780.144C194.518 780.891 190.457 782.561 186.567 783.874C179.51 786.254 172.627 788.202 165.2 789.03C147.294 791.026 126.502 786.026 110.973 777.025C106.183 774.248 101.934 770.875 97.6346 767.416C104.152 770.028 110.164 773.898 116.749 776.487C137.717 784.733 160.245 787.089 181.248 778.01C169.031 774.248 143.845 762.195 136.63 751.54C138.181 751.868 139.974 753.675 141.301 754.624C153.018 763.003 172.301 773.323 186.62 774.25C191.81 774.586 196.948 773.524 202.042 772.665C196.062 767.712 190.604 762.723 185.497 756.857C192.765 760.676 199.123 766.114 206.504 769.712C214.174 773.451 222.114 771.7 229.825 769.002C245.143 763.641 246.175 755.257 256.839 745.66C268.523 735.145 284.389 731.4 295.668 720.056C302.562 713.122 306.887 704.981 311.054 696.26C302.128 697.812 292.903 699.315 283.829 699.362C278.294 699.391 272.782 698.548 267.242 698.671C253.635 698.971 240.813 706.924 230.31 714.964C235.218 709.202 240.354 704.705 246.801 700.727C239.742 701.14 231.878 700.796 224.978 699.331C238.602 698.732 251.837 696.613 265.252 694.304C253.742 687.83 243.737 679.776 233.423 671.606Q220.881 661.857 208.703 651.658Q206.798 651.379 204.886 651.164Q202.973 650.95 201.054 650.8Q199.135 650.65 197.212 650.566Q195.288 650.482 193.364 650.462Q191.439 650.443 189.515 650.489Q187.59 650.535 185.669 650.646Q183.747 650.758 181.83 650.934Q179.913 651.111 178.004 651.352Q176.094 651.593 174.193 651.899Q172.293 652.205 170.404 652.575Q168.515 652.945 166.64 653.379Q164.764 653.813 162.905 654.311Q161.045 654.808 159.204 655.368Q157.362 655.928 155.541 656.55Q153.719 657.172 151.92 657.856Q150.12 658.54 148.345 659.284C144.679 666.855 145.825 673.151 145.065 681.08C144.305 689.004 140.377 696.235 135.897 702.653C138.169 696.601 140.891 690.314 141.438 683.804C142.094 675.998 141.002 668.698 142.608 660.853C133.879 664.287 126.317 669.309 119.634 675.855C116.307 679.112 113.095 682.656 109.36 685.449C98.2016 693.796 86.3128 693.544 73.1607 691.542C76.26 691.136 79.5321 691.253 82.6615 691.051C92.4719 690.416 99.8246 687.596 107.614 681.659C98.4452 677.577 89.784 672.294 79.7785 670.448C74.4299 669.461 68.5978 669.969 63.3825 668.612C63.061 668.528 62.7419 668.435 62.4216 668.347C72.4254 667.688 82.5765 667.278 92.1742 670.703C98.2503 672.872 104.163 675.514 110.392 677.232L111.259 677.467C116.09 671.724 121.496 666.574 127.704 662.341C120.002 654.823 111.833 648.695 103.429 642.038C113.897 646.576 122.612 653.079 132.444 658.689C151.971 650.268 175.272 643.59 196.669 642.969C174.421 626.867 162.029 619.647 135.491 610.618C129.282 613.182 122.844 614.788 116.33 616.341C114.698 619.786 112.907 623.212 110.654 626.296C101.936 638.227 90.0168 639.777 76.3824 641.966C80.3369 640.555 84.3447 639.239 88.2327 637.651C99.1226 633.206 105.607 627.409 110.238 616.502C102.134 616.504 93.9799 616.343 85.8821 616.625C71.6964 617.117 46.7409 621.694 37.2044 633.157C33.2583 637.901 31.3756 644.056 27.007 648.527C21.2658 654.402 13.3289 654.938 5.62979 655.012C22.8015 650.254 26.5243 644.045 35.7092 629.493C23.6182 632.159 11.7872 632.581 0.0517381 628.435C14.0317 629.045 28.094 628.327 41.3764 623.532C47.6497 621.267 53.6936 618.342 59.9288 615.951C44.9569 607.513 27.5089 604.62 11.233 599.621C30.5369 601.004 48.0691 606.658 65.9098 613.838C71.9223 612.847 77.9144 611.675 84.0058 611.289C100.322 610.257 112.92 611.299 129.089 606.076C119.549 603.791 109.987 601.419 100.931 597.577C87.2559 591.776 75.6744 581.249 60.0662 581.241C51.7358 581.236 44.3662 583.889 36.3139 585.405C22.2467 588.053 11.4721 583.745 0 575.844ZM726.45 580.594C737.771 582.919 747.202 589.227 757.854 593.283C764.421 595.784 771.669 598.518 778.782 598.731C795.007 599.217 830.965 583.294 845.914 576.222C838.926 582.239 830.41 586.718 822.453 591.353C836.781 589.43 850.885 588.113 864.735 583.65C848.363 593.955 833.839 593.836 815.62 597.621C807.113 599.388 798.878 602.262 790.693 605.134C803.453 616.645 815.338 623.291 832.048 627.415C847.326 620.918 860.419 608.442 874.567 599.486C876.446 598.297 878.791 596.152 880.903 595.582C878.186 599.26 872.572 602.94 868.982 605.971Q855.183 617.764 841.19 629.326C851.642 630.7 862.065 631.979 872.324 634.482C882.096 636.866 891.592 640.244 901.471 642.209C904.218 640.419 907.021 638.317 909.961 636.886C918.455 631.755 927.174 627.645 936.596 624.525C930.891 628.438 924.964 631.925 918.614 634.684C914.889 636.93 911.348 639.247 907.89 641.888C925.703 642.128 935.05 641.435 952.63 637.24C929.907 652.665 902.977 645.352 877.94 652.442C904.271 658.821 915.631 670.712 944.891 666.716C952.911 665.621 961.455 663.246 968.42 659.018C975.088 654.97 980.922 650.161 988.095 646.909C979.818 655.413 971.274 661.956 960.415 666.919C975.208 667.168 991.051 668.542 1005.07 662.919C1010.29 660.823 1015.12 657.855 1020.21 655.49C1007.5 667.49 990.589 671.625 973.57 671.847C967.459 671.927 961.345 671.457 955.234 671.581C948.584 671.716 942.079 673.19 935.397 673.178C950.742 683.708 969.072 690.228 982.405 703.63C969.5 697.355 957.022 690.288 944.169 683.925C932.815 678.305 921.275 673.469 909.532 668.733C893.362 673.771 877.95 680.364 864.992 691.52Q880.864 692.184 896.749 692.046C902.513 691.947 916.506 690.45 921.09 691.435C918.098 692.779 914.044 692.7 910.793 693.071C894.69 694.907 879.384 695.708 863.166 695.453C872.455 701.395 881.932 706.182 892.131 710.335C897.938 712.7 903.928 714.681 909.594 717.37C893.893 715.814 878.507 708.993 864.479 702.003C860.84 700.19 857.874 697.261 853.993 696.018L853.086 695.721C847.161 693.828 840.687 693.152 834.595 691.882C839.031 696.515 843.467 700.974 848.328 705.172C846.432 705.429 841.821 701.498 840.316 700.341C828.996 691.64 824.969 685.802 809.312 687.666C791.149 689.829 772.111 700.728 756.877 710.559C762.05 714.709 765.792 719.684 769.789 724.931C780.99 739.634 789.353 748.372 806.864 755.102C822.868 744.994 832.369 727.373 851.202 721.308C844.989 726.115 838.686 730.812 833.235 736.502C828.916 741.012 825.164 746.158 820.646 750.459C829.536 747.186 838.834 745.016 847.61 741.469C851.656 736.217 855.801 731.916 860.874 727.644C858.193 732.014 855.621 736.567 852.751 740.809C863.681 738.476 873.55 738.721 884.608 740.219C878.74 741.135 872.833 741.277 866.971 742.087C873.548 744.64 879.826 748.384 885.866 752.018C892.026 747.348 898.044 743.562 905.261 740.753C905.543 739.263 905.644 737.825 906.469 736.533C906.699 737.824 906.783 738.831 906.684 740.156L915.433 739.724C921.722 728.18 926.073 715.466 933.198 704.451C929.187 716.181 925.822 729.312 919.379 739.955C935.895 740.401 945.908 738.56 961.374 732.691C949.108 742.7 936.728 744.303 921.274 744.037C916.398 743.953 911.516 743.578 906.818 745.193C901.822 746.909 898.151 750.141 894.146 753.407C913.366 754.52 932.264 761.14 951.367 755.894C938.346 762.866 926.317 761.217 912.245 759.36Q901.254 757.865 890.209 756.838C886.097 761.487 882.407 766.074 879.246 771.439C892 771.807 904.638 775.391 917.33 775.353C931.559 775.312 964.768 760.701 976.724 752.807L977.039 753.212C973.032 760.58 939.406 775.589 930.377 778.541C951.114 791.24 969.05 795.404 992.852 798.71C988.369 801.385 958.869 796.403 952.276 794.742Q951.186 794.471 950.107 794.162C956.965 800.707 962.807 807.087 968.049 815.037C955.591 803.373 935.442 781.757 917.214 782.274Q914.634 782.36 912.055 782.473C917.782 793.109 923.119 804.314 929.926 814.294C933.188 819.075 937.2 823.34 940.747 827.912L940.753 827.91C940.587 827.869 940.416 827.846 940.257 827.786C938.574 827.153 936.799 825.144 935.42 823.905C921.903 811.765 915.629 797.204 905.402 782.855C899.187 780.766 892.864 778.302 886.261 777.886C880.46 777.52 874.944 778.991 869.41 780.539C857.621 783.835 848.23 784.663 836.176 781.961C836.319 782.106 836.464 782.249 836.605 782.395C846.247 792.377 853.353 810.903 869.058 811.381C879.883 811.711 891.21 808.236 901.833 806.266C896.764 808.602 891.58 811.113 886.2 812.618C893.56 815.469 901.378 818.605 907.744 823.33L907.314 823.534C895.397 817.824 886.884 812.833 873.199 816.099C881.66 822.517 892.587 833.079 897.731 842.49C889.291 834.298 879.846 824.869 869.519 819.164C863.783 815.995 856.711 814.939 851.632 810.702C846.425 806.36 842.604 800.432 838.548 795.063C833.325 788.151 827.079 781.515 819.997 776.481C807.923 767.899 793.079 763.703 781.738 754.16C768.686 743.178 763.317 723.545 747.43 715.873C742.713 717.256 736.918 719.604 731.984 719.26C726.285 718.862 721.09 715.317 716.151 712.716C705.488 707.1 691.784 701.673 679.474 703.465C663.422 705.802 655.128 722.182 646.604 734.089Q640.88 741.999 633.872 748.797C613.752 767.952 582.203 776.167 568.419 801.771C566.285 805.735 564.881 810.034 564.528 814.536C563.975 821.561 565.28 829.148 566.122 836.123Q567.322 846.598 568.998 857.007Q570.674 867.417 572.822 877.739Q574.969 888.062 577.585 898.276Q580.2 908.49 583.278 918.574C588.237 934.662 596.238 959.493 611.923 967.724C624.405 974.273 639.882 973.668 653.502 975.887C665.067 977.771 676.156 981.593 687.5 984.401C704.738 988.669 723.352 990.665 739.479 998.524C745.266 1001.34 750.249 1005.95 754.771 1010.46C745.766 1005.64 736.509 1001.6 726.485 999.448C705.935 995.046 685.172 997.138 665.017 989.687C670.478 993.473 673.231 997.874 677.21 1003.01C682.172 1009.42 698.352 1011.1 706.121 1013.75C691.745 1012.76 679.427 1012.7 667.17 1004.1C661.72 1000.28 656.77 996.679 650.31 994.76C639.002 991.399 626.112 992.518 614.387 991.889C621.169 995.543 628.94 997.959 635.28 1002.27C643.595 1007.92 649.493 1017.2 656.929 1024L1024 1024L1024 580.153C1017.51 580.932 1011.1 581.741 1004.55 581.527C1011.21 585.373 1017.94 589.145 1024 593.924C986.796 582.262 983.506 562.39 941.883 582.996C950.084 584.667 970.372 584.905 976.333 587.677C966.315 587.218 956.355 588.675 946.323 588.454C955.927 601.171 973.5 613.322 987.713 620.253C971.447 616.211 959.175 606.441 946.474 596.055C942.52 592.822 938.513 589.058 933.829 586.935C927.108 583.889 911.263 584.702 902.731 582.76Q893.851 580.749 885.273 577.696C873.256 573.291 861.677 567.382 848.886 565.459C845.376 564.931 841.885 564.981 838.364 565.367C823.257 567.022 808.354 571.125 793.189 572.981Q777.474 574.852 761.682 575.891C750.076 576.76 737.649 577.249 726.45 580.594ZM118.359 463.874C125.486 447.83 132.662 432.399 134.79 414.738C113.106 418.999 94.4914 425.949 78.3915 441.603C73.4409 446.416 69.0134 452.62 63.4967 456.707C63.3489 456.816 63.1972 456.92 63.0475 457.027C87.6936 424.598 94.9348 419.212 134.264 407.898C136.245 403.196 138.489 399.764 141.798 395.887Q127.515 397.672 113.122 397.46C96.3825 397.234 77.0814 393.437 62.5287 404.217C53.3653 411.005 47.6102 421.278 38.6108 428.085C38.4663 428.194 38.319 428.3 38.1731 428.407C34.128 432.614 27.9952 435.404 22.5142 437.157C21.1212 437.602 19.461 437.71 18.1729 438.345C18.0507 438.406 17.9377 438.483 17.8201 438.552L17.6547 438.3C18.2809 437.383 26.749 434.081 28.6154 432.973C33.8015 429.893 37.9379 424.845 42.4924 420.932C45.7458 416.374 49.7637 412.081 53.3377 407.748C35.5963 413.663 18.7255 416.856 0 414.333L0 573.629C4.73531 576.015 9.36409 578.403 14.5437 579.692C35.0479 584.798 49.5886 569.654 71.759 576.034C80.7101 578.61 88.7049 584.651 96.96 588.841C85.6453 579.567 66.1825 563.98 52.7502 559.068C49.793 557.986 46.9415 557.614 43.8261 557.415C33.0382 556.724 22.1849 557.335 11.6289 554.664C23.403 554.653 35.0236 553.59 46.7695 553.145C40.3247 545.476 33.0562 540.755 23.5301 537.605C21.2297 536.844 18.0582 536.559 16.0768 535.286C24.0077 534.04 36.9785 538.614 43.5235 543.215C47.9843 546.35 51.3407 550.864 55.7217 554.084C63.0658 559.481 71.5744 563.518 79.306 568.367C96.8254 579.354 109.28 591.123 130.226 596.214C126.64 589.622 123.898 582.632 120.464 575.966C109.784 555.234 94.4986 542.568 72.1507 535.928C64.5465 533.668 56.8519 531.898 49.4978 528.852C34.3844 522.593 22.528 509.842 14.823 495.674Q13.5265 493.324 12.3658 490.904Q11.2051 488.484 10.1839 486.002Q9.16272 483.521 8.28435 480.985Q7.40599 478.449 6.6733 475.867Q5.94061 473.285 5.35597 470.665Q4.77132 468.046 4.33661 465.398Q3.90191 462.749 3.61855 460.081Q3.33519 457.412 3.20409 454.731C5.04079 460.635 6.33556 466.742 8.40466 472.564C15.0188 491.173 27.103 507.826 44.8266 517.109C49.5873 519.602 54.5765 521.36 59.721 522.87C46.1679 502.628 38.7741 483.664 33.1387 460.028L33.4002 460.547C45.6168 485.25 51.345 513.301 78.0994 527.44C75.2276 512.444 73.8697 497.34 70.5717 482.361C78.2105 496.996 80.533 513.207 84.7325 528.949C96.7603 535.103 107.483 542.622 116.673 552.588C114.677 546.119 113.779 539.357 111.895 532.841C108.579 521.367 104.341 510.289 101.637 498.625C99.1678 487.977 97.9968 476.998 94.9991 466.484C100.312 475.532 102.183 486.957 105.17 496.935Q108.503 507.774 113.217 518.088C115.376 510.863 122.148 494.083 125.663 487.701L125.874 487.946Q121.544 506.944 115.393 525.433C120.401 543.913 132.334 588.619 148.648 598.301C157.712 603.68 169.339 605.094 179.056 609.29C191.19 614.53 201.508 622.063 212.853 628.623C207.563 610.634 200.096 592.477 187.852 578.031C183.091 572.414 177.494 567.541 172.598 562.051C179.351 566.47 185.723 571.33 191.316 577.176C191.57 564.79 188.997 557.926 180.483 549.072C169.789 537.952 158.545 534.12 145.842 526.614C156.784 529.813 166.427 534.406 176.515 539.601C175.344 534.377 173.767 529.162 172.807 523.908C175.96 530.137 178.43 537.672 182.457 543.291C186.672 549.172 193.595 553.031 196.652 559.776C199.629 566.347 197.298 574.214 199.448 581.089C202.164 589.774 209.363 596.709 213.471 604.729C218.15 613.862 219.833 624.346 224.724 633.305C231.268 645.291 258.94 662.83 271.483 666.991C292.915 674.1 311.802 664.448 332.784 661.775C327.256 655.063 316.131 640.756 309.115 636.502C306.293 634.791 302.15 634.016 298.968 633.092C293.86 631.609 288.722 630.024 283.538 628.843C273.659 626.592 249.602 623.388 242.842 616.288C247.311 617.268 251.504 618.977 255.913 620.04C264.222 622.042 272.835 623.082 281.292 624.262C275.831 616.3 270.281 608.462 264.63 600.637C263.291 599.756 261.938 598.003 260.717 596.891C253.966 590.745 246.632 584.835 240.821 577.776C248.749 583.428 257.611 589.35 264.189 596.582C275.335 605.145 280.932 620.808 294.006 626.509C298.218 628.346 302.85 629.223 307.297 630.317C303.251 622.031 299.798 613.026 297.171 604.194C294.586 595.502 292.571 586.607 289.335 578.119C286.748 571.333 282.819 565.225 279.423 558.841C291.013 571.514 295.465 586.985 300.976 602.835C304.55 595.334 306.565 587.355 308.689 579.358C308.32 588.959 306.412 597.821 303.42 606.927C314.786 636.4 320.689 641.733 347.44 657.797C359.83 654.661 374.118 654.065 386.708 655.716C376.773 635.922 366.977 612.595 349.231 598.496C338.928 590.311 327.732 583.842 318.518 574.252C312.58 568.071 307.747 560.966 303.309 553.666C300.305 548.726 297.447 543.133 293.656 538.764C284.812 528.574 267.933 523.042 255.164 519.553C245.379 516.879 236.573 518.861 226.745 519.098C221.489 519.225 216.353 518.587 211.179 517.715C208.152 517.204 204.769 516.865 201.974 515.552L201.871 515.146C217.237 515.857 231.783 514.683 247.025 512.796C237.024 506.91 224.694 501.622 215.535 494.997C225.126 497.379 233.96 500.145 242.777 504.74C249.206 508.09 255.364 512.117 261.975 515.09C270.855 519.083 280.139 521.852 288.778 526.439C286.37 522.47 283.738 518.612 280.661 515.129C274.572 508.235 266.79 503.195 258.644 499.057C230.471 484.747 210.645 486.528 181.211 482.595C168.071 480.839 155.18 477.548 141.919 476.648C149.826 475.527 157.06 475.135 164.966 476.401C154.81 467.717 143.073 456.222 136.424 444.483C146.446 454.583 160.733 470.548 174.105 475.012C179.942 476.961 186.036 477.35 192.141 477.582C185.349 468.703 178.072 460.466 172.291 450.829C179.669 458.605 187.241 468.192 196.502 473.697C207.478 480.221 221.706 479.365 233.924 481.955C250.219 485.41 267.877 491.705 282.278 500.089C279.63 492.621 278.404 484.656 277.223 476.846C273.62 473.827 269.885 470.934 266.363 467.822C261.387 463.427 256.742 457.994 250.728 455.001C240.588 449.954 224.135 452.704 213.796 455.97C223.855 449.923 238.463 447.302 250.05 448.429C238.675 436.568 227.038 422.156 210.39 418.079C204.724 416.691 198.828 416.398 193.048 415.718C198.82 415.267 204.581 414.693 210.338 415.63C226.737 418.302 243.679 432.17 254.068 444.489C261.103 452.833 266.305 460.842 275.703 466.877C269.66 439.568 263.666 430.712 247.832 408.718C264.983 422.325 275.981 441.642 280.955 462.808C283.356 473.025 284.881 483.439 288.284 493.402C294.812 512.516 305.344 531.443 316.767 548.051C326.593 562.336 337.364 570.973 351.097 581.083C357.027 585.448 363.075 589.763 368.283 594.996C371.113 579.398 380.643 567.092 383.171 552.526C385.141 541.179 384.378 529.634 384.703 518.176C384.798 514.838 384.478 510.689 385.461 507.494L385.781 507.743C387.041 521.874 388.441 535.908 388.529 550.107C391.974 544.508 396.789 539.647 400.644 534.307C405.967 526.936 408.505 519.356 411.798 511.04C412.684 517.88 405.656 532.78 402.786 539.149C408.699 537.489 414.314 535.267 419.895 532.726C414.641 537.544 408.303 539.897 402.238 543.439C391.435 549.747 384.058 570.498 379.99 581.932C386.933 580.532 394.263 577.883 401.309 577.518C417.561 576.676 424.765 590.3 438.524 590.89C449.683 591.368 461.837 588.306 472.734 586.086C476.73 585.271 480.977 584.039 485.064 583.999C485.229 583.997 485.393 584.002 485.558 584.004C483.467 573.155 481.075 562.173 475.687 552.412C466.542 535.843 448.906 523.091 434.767 510.838C427.199 504.279 419.749 497.519 411.99 491.191C403.697 484.429 394.711 478.69 384.675 474.872C359.242 465.196 355.198 482.756 337.303 493.665C330.825 497.614 324.206 499.163 316.743 499.934L316.821 499.328L316.269 500.054L316.102 499.887C316.303 499.574 326.542 496.252 328.969 494.858C337.628 489.885 342.266 481.806 349.35 475.27C346.303 475.412 343.219 475.509 340.171 475.38C323.483 474.673 306.143 469.83 294.565 457.111C300.393 460.878 306.403 464.098 312.998 466.317C324.229 470.096 340.587 473.776 352.264 470.006C355.965 468.811 359.658 466.635 363.152 464.909Q354.208 460.16 345.812 454.498Q337.416 448.836 329.661 442.325C321.894 435.766 314.475 428.589 306.19 422.682C283.437 421.215 259.897 410.886 240.332 399.662C253.414 403.136 266.021 407.993 279.073 411.411C286.279 413.298 293.523 414.205 300.829 415.519C293.084 406.43 284.155 397.706 274.686 390.418C257.054 376.847 238.788 373.725 217.048 376.598C194.333 379.6 148.883 386.163 140.76 411.444C138.982 416.976 138.256 422.953 136.98 428.626C133.86 442.494 126.867 452.796 118.359 463.874ZM590.388 317.541C584.43 319.57 579.608 322.411 574.497 326.071C561.15 335.626 556.05 343.857 547.05 357.063C543.712 361.961 539.917 366.628 537.288 371.965C529.647 387.478 538.631 405.82 534.524 422.326C526.513 454.527 488.739 476.597 501.786 513.533C506.946 528.139 516.627 542.317 528.276 552.505C543.665 536.029 560.905 513.405 578.397 499.996C575.896 486.177 571.803 476.598 565.716 464.075C573.867 473.331 578.616 483.998 583.462 495.196C590.936 488.293 598.873 481.352 605.315 473.443C602.908 468.226 600.713 463.043 597.41 458.3C590.811 448.827 581.265 441.811 572.788 434.115Q564.859 426.796 558.018 418.453C567.168 423.798 575.681 433.746 585.953 440.034C581.656 431.607 577.407 423.06 572.748 414.827C566.872 404.444 559.437 394.662 556.493 382.914Q565.925 398.592 577.042 413.125C576.844 403.64 577.669 394.384 578.605 384.952Q579.391 391.516 579.555 398.125C581.153 418.878 585.939 428.968 598.408 445.662C598.971 439.355 600.438 433.119 600.312 426.765C600.068 414.522 593.38 392.584 588.121 381.431C585.013 374.839 580.909 368.727 578.016 362.03C574.958 354.949 572.92 347.479 570.964 340.034C577.833 352.996 582.945 365.911 592.128 377.615C598.447 368.938 602.232 360.849 605.81 350.727C607.484 345.992 608.959 340.912 611.357 336.487C609.262 345.715 607.419 355.16 604.823 364.256C612.868 356.287 621.859 349.269 629.644 341.033C620.057 357.145 605.264 366.236 596.06 382.144C598.305 390.227 600.971 398.697 604.88 406.151C615.653 397.616 627.076 391.309 640.276 387.297C632.84 392.188 624.949 396.565 617.703 401.699C613.649 404.57 610.049 407.915 606.174 410.99C606.872 417.154 607.422 423.405 607.331 429.613C607.15 441.943 605.117 451.601 610.689 463.151C618.749 451.566 624.725 439.029 630.422 426.161C647.199 388.258 650.856 366.122 653.446 324.851C634.042 322.423 609.452 316.784 590.388 317.541ZM676.11 450.009C675 463.592 675.64 476.845 676.84 490.388C681.717 479.962 688.457 471.62 696.303 463.298C685.63 484.899 678.044 496.499 674.024 521.138C681.362 516.301 689.05 510.894 695.844 505.325C700.329 490.572 702.609 483.814 712.191 471.702C711.987 458.308 712.133 444.692 720.311 433.426C716.276 445.238 714.22 454.138 716.749 466.588C723.356 461.937 731.251 459.789 737.716 454.702C768.274 430.659 759.232 402.722 775.912 372.788C772.641 384.523 769.891 397.202 768.139 409.24C780.386 398.341 797.532 395.436 812.532 390.339L812.794 390.481L812.905 390.861C800.148 397.406 781.174 403.059 770.746 412.427C766.248 416.468 765.867 424.732 763.88 430.288C760.03 441.049 753.739 450.136 744.76 457.242C759.628 453.399 771.63 446.552 784.327 438.223C789.452 434.861 794.471 431.298 799.952 428.532C793.832 434.314 787.729 440.059 780.927 445.048C775.48 449.044 769.578 452.326 764.27 456.526C768.933 456.452 782.129 456.192 786.249 457.908C786.371 457.959 786.483 458.033 786.6 458.095L787.176 458.021C785.017 458.983 775.52 459.24 772.615 459.54C758.811 460.964 742.198 463.269 729.681 469.782C717.027 476.367 712.574 487.606 708.492 500.451C715.888 498.755 723.376 497.2 730.704 495.236C736.884 493.579 742.914 491.472 749.124 489.878C759.552 476.39 790.539 459.289 806.378 452.654C800.221 457.416 794.204 462.331 787.827 466.803C776.922 474.448 765.746 481.425 755.229 489.633C764.122 489.128 772.926 488.994 781.834 489.159C788.946 489.29 796.295 489.854 803.376 489.115C811.127 478.173 818.294 446.629 819.498 433.011C820.917 416.975 820.104 400.849 822.158 384.812C822.337 379.201 823.558 373.803 824.753 368.344C824.878 377.319 824.474 386.321 824.466 395.304C824.729 407.799 825.699 420.201 826.6 432.658Q830.692 427.903 834.612 423.006C850.018 403.501 854.209 388.685 851.367 364.265L851.218 364.109C839.477 351.592 827.765 346.972 817.624 330.696C821.311 332.856 826.582 339.945 830.411 343.239C837.165 349.05 844.661 353.799 851.927 358.92C853.8 348.126 859.391 338.847 864.854 329.533C861.54 326.468 858.279 323.373 855.262 320.009C851.168 315.444 843.928 303.699 838.48 301.631C831.397 298.943 809.732 306.734 804.634 311.825C798.965 317.485 795.529 327.07 791.452 334.035C784.828 345.353 777.383 356.205 770.518 367.379C763.14 379.388 756.486 393.003 746.865 403.394C727.788 423.997 700.826 437.425 676.11 450.009ZM274.111 264.528C263.846 267.36 257.797 273.265 252.643 282.418C247.506 291.539 244.818 301.801 244.088 312.196C256.092 325.632 263.71 342.198 275.159 356.048C277.5 349.975 280.807 343.71 282.377 337.416C285.805 323.676 275.638 305.219 272.524 291.917C279.29 305.198 283.931 318.348 287.743 332.71C295.439 330.359 302.644 328.148 309.406 323.637C303.006 330.461 295.603 332.822 287.914 337.57C285.172 343.47 279.388 356.908 281.783 363.189C283.186 366.867 286.506 370.629 289.123 373.524C295.84 380.955 303.87 387.109 310.988 394.145C324.697 407.697 336.952 422.766 352.814 433.951Q364.326 442.038 376.939 448.269C381.963 450.708 387.198 452.709 392.215 455.148C386.459 441.352 383.208 425.963 374.677 413.499C364.674 398.885 344.979 392.829 330.195 384.331C325.516 381.642 321.312 378.442 317.166 375.002C314.734 372.984 311.4 370.308 309.743 367.606C319.043 373.484 327.846 378.933 337.741 383.82C328.173 373.301 321.162 362.362 315.887 349.11L315.605 348.096L316.185 348.209C320.475 355.095 324.273 362.352 329.02 368.939C339.122 382.957 353.858 392.085 368.643 400.463C358.649 388.018 349.954 375.358 342.475 361.247L342.586 360.616C345.978 363.907 348.546 368.867 351.407 372.698C356.202 379.119 361.807 385.221 366.022 392.043C365.797 386.35 366.365 368.271 369.236 363.777C369.411 367.09 368.853 370.404 368.616 373.709C368.11 380.761 368.26 388.714 370.171 395.569C374.687 391.441 378.215 386.474 382.516 382.16C379.249 388.675 374.753 394.471 371.871 401.173C380.129 413.073 386.166 423.517 392.606 436.43C396.859 423.635 403.346 408.037 415.937 401.248C407.301 410.226 402.228 418.869 398.686 430.797C408.788 422.516 419.062 415.139 427.902 405.41C417.634 388.287 405.339 367.343 388.227 356.387C380.68 351.555 372.212 348.334 363.941 344.983C349.777 339.246 337.209 332.404 325.647 322.295C307.45 306.385 302.888 279.476 280.891 267.289C279.377 266.45 276.668 264.761 275.025 264.529C274.723 264.486 274.416 264.528 274.111 264.528ZM658.863 628.235C653.644 628.381 649.149 628.584 644.267 630.62C637.02 633.643 630.758 639.176 624.252 643.484C609.811 653.047 594.643 661.027 582.527 673.729C562.821 694.388 558.125 722.698 558.525 750.189C570.123 744.652 582.857 744.465 594.605 739.68C613.53 731.972 627.049 713.853 640.973 699.643C644.835 695.702 649.749 692.485 652.765 687.811C657.58 680.353 659.118 671.174 664.004 663.684C680.519 662.317 685.675 643.614 705.824 643.947C711.1 645.131 714.887 646.922 719.193 650.226C711.218 647.349 705.134 644.791 696.837 648.753C685.046 654.385 670.693 671.707 663.918 682.9C683.476 683.136 701.898 687.837 719.984 694.966C726.627 697.585 733.125 700.688 739.866 703.043C759.716 698.698 776.594 686.905 795.908 681.023C783.309 677.175 771.799 668.848 762.075 660.162C757.586 656.151 753.224 651.776 748.383 648.194C742.828 644.085 735.262 642.6 728.77 640.495C701.784 631.747 687.603 627.853 658.863 628.235ZM549.859 121.432C538.946 133.798 522.66 149.879 517.5 165.592C514.972 173.29 514.635 181.496 515.158 189.524C515.723 198.186 517.424 206.718 518.333 215.339C519.23 223.852 519.286 232.703 518.788 241.25C518.005 254.702 514.326 267.142 512.129 280.321C508.811 300.213 515.027 317.343 521.746 335.669C524.077 342.028 526.195 348.77 529.1 354.888C541.783 338.863 551.542 320.985 556.958 301.245C551.381 285.206 543.402 270.089 538.314 253.909C546.534 266.144 552.454 280.338 559.756 293.186C564.585 279.664 568.382 271.312 565.868 256.742C565.175 252.726 564.401 248.77 562.719 245.034C557.135 232.628 540.807 226.985 530.969 218.139Q538.934 222.246 546.838 226.468C550.914 228.557 554.969 230.708 559.083 232.721C556.007 220.548 549.591 210.77 544.106 199.703C538.036 187.457 535.104 174.211 533.735 160.689C540.243 178.75 543.408 192.017 553.472 208.948C558.449 197.512 561.02 185.992 563.755 173.881C563.321 187.683 560.773 198.942 555.446 211.713C563.982 230.079 569.031 241.304 573.444 261.571C584.591 251.726 594.458 240.603 595.431 225.011C596.556 206.994 588.48 184.283 585.746 166.123C572.343 162.364 550.064 158.512 538.899 151.426C553.175 155.257 568.498 156.432 582.435 161.257C575.474 155.323 570.467 146.275 564.894 139.003C560.221 132.905 554.993 127.144 549.859 121.432ZM738.181 502.137C720.038 507.924 702.27 515.015 686.594 526.03Q681.016 529.92 676.364 534.88C667.689 544.008 661.193 554.922 651.973 563.583C639.488 575.311 624.58 584.136 612.665 596.531Q610.798 598.444 609.075 600.487Q607.352 602.53 605.781 604.692Q604.209 606.854 602.798 609.123Q601.387 611.393 600.144 613.759C598.328 617.249 596.727 620.893 595.198 624.518C607.358 619.644 618.262 612.287 629.743 606.079C644.028 598.492 658.645 591.625 673.003 584.196C684.832 578.076 696.128 571.344 708.493 566.265C719.179 561.877 741.491 557.967 749.254 552.01C757.331 545.812 765.641 532.825 772.627 524.805C777.934 518.714 783.951 513.233 789.204 507.117C772.929 512.717 753.545 508.68 738.181 502.137ZM401.501 588.201C392.949 589.118 384.581 590.726 376.168 592.483C375.73 595.09 375.388 597.76 374.779 600.332Q385.215 612.337 394.287 625.403C400.512 634.292 408.976 649.328 416.941 656.106C425.313 663.228 457.166 676.756 468.91 682.003C471.589 683.106 475.813 685.323 478.741 684.286C480.956 683.502 482.112 681.359 482.93 679.294C484.628 675.008 485.281 670.108 486.132 665.593C489.11 649.803 492.414 630.156 485.507 615.006C483.488 610.578 480.603 607.908 475.978 606.275C464.108 602.085 452.097 609.216 440.748 606.763C426.304 603.641 417.852 585.993 401.501 588.201ZM688.316 291.885C682.401 297.103 677.104 302.719 672.375 309.04C672.885 324.527 673.603 340.08 672.345 355.549C670.369 379.844 662.566 403.109 654.026 425.783C677.554 421.537 700.081 417.091 718.312 400.218C719.305 397.142 719.608 394.285 719.848 391.08C718.595 377.7 703.174 365.462 695.421 355.125C691.81 350.309 689.064 345.269 686.732 339.738C691.091 344.704 694.983 350.051 699.367 354.984C706.196 362.668 713.458 369.971 719.956 377.95C718.651 371.091 717.769 364.274 717.748 357.28C708.696 346.944 700.24 336.504 695.349 323.481C692.789 316.664 691.559 309.326 690.466 302.151C690.016 299.198 689.844 295.765 688.974 292.941C688.86 292.573 688.603 292.155 688.316 291.885ZM788.244 241.026C763.066 248.274 729.2 255.655 707.658 270.175C701.203 274.526 695.974 279.578 691.557 285.978C695.124 291.706 698.749 296.745 705.807 298.24C723.71 302.032 741.456 285.054 758.111 280.606C763.286 279.327 768.501 278.171 773.804 277.567C761.126 281.851 749.167 286.594 737.956 294.045C760.637 291.272 772.806 294.001 793.984 301.791C798.338 293.328 802.171 284.599 806.191 275.975C808.75 270.487 811.634 265.106 813.879 259.481C810.269 256.709 790.646 240.754 788.244 241.026ZM656.073 231.767C643.95 232.896 630.659 234.993 619.943 241.133C615.533 243.66 611.536 246.847 607.161 249.399C599.297 253.985 595.565 254.084 589.208 261.771C574.849 279.137 568.54 302.327 565.073 324.218C576.911 316.618 592.024 309.048 597.744 295.452C599.889 290.354 600.933 284.815 602.153 279.44C603.725 272.513 605.16 265.55 607.524 258.837C607.824 257.986 607.926 257.002 608.745 256.569L608.996 256.873C608.899 257.179 608.781 257.479 608.706 257.792C608.431 258.936 608.349 260.205 608.188 261.375C606.89 271.377 606.576 283.073 603.37 292.612C613.337 280.478 623.453 268.592 633.074 256.163C628.283 268.404 612.021 289.717 602.624 299.093C618.199 294.689 633.783 291.009 649.905 289.281C647.541 275.755 644.887 260.352 649.722 247.059C651.675 241.693 654.541 236.829 657.036 231.725L656.073 231.767ZM751.29 297.695C742.731 298.634 734.63 300.438 726.288 302.461C739.445 309.651 754.285 311.985 766.338 321.467Q751.527 315.877 736.54 310.78C727.951 337.176 720.492 354.12 727.895 382.61C728.779 385.562 729.565 388.599 730.609 391.495C755.532 369.203 778.689 332.477 793.672 302.663C781.533 299.059 763.944 295.57 751.29 297.695ZM614.303 507.434C587.682 543.478 549.542 568.23 549.439 617.64C549.426 623.693 549.452 629.918 550.489 635.892C550.611 636.599 550.859 637.167 551.212 637.784C552.2 637.692 551.852 637.88 552.361 637.49C556.101 635.179 559.785 633.011 563.766 631.126C567 607.539 574.173 596.407 592.928 582.169C608.965 569.994 613.824 571.246 616.725 549.586C618.563 535.87 618.987 520.606 614.303 507.434ZM386.312 1024L603.205 1024C586.437 1016.91 563.614 1016.54 551.894 1000.59C547.934 995.204 546.302 988.476 542.489 982.94L542.048 982.306C541.114 984.669 540.035 987.353 538.34 989.276C533.84 994.381 523.49 994.254 520.723 1000.83C519.846 1002.92 520.094 1005.46 520.966 1007.5C523.481 1013.41 531.157 1015.85 536.672 1017.91C529.814 1018.06 522.498 1018.66 516.363 1014.93C510.984 1011.66 509.194 1006.24 507.888 1000.45C495.476 1008.17 481.923 1008.27 468.02 1011.27C464.076 1012.13 460.59 1013.82 456.762 1014.93L457.451 1014.53L457.158 1014.45C465.685 1009.45 474.863 1007.65 483.705 1003.47C492.063 999.529 502.062 993.151 505.024 983.828C505.518 982.274 505.411 981.45 504.704 980.007C504.482 979.921 504.268 979.688 504.037 979.748C503.434 979.907 496.956 987.609 495.644 988.75C482.593 1000.09 464.393 997.29 449.224 1003.72C439.567 1007.81 432.029 1015.53 422.279 1019.55C409.969 1024.63 396.949 1019.56 386.312 1024ZM925.45 532.704C918.773 533.432 912.035 534.132 905.629 536.267C895.7 539.575 889.393 546.214 881.138 552.172C876.663 555.402 871.682 557.809 866.682 560.096C871.843 562.556 876.979 565.175 882.346 567.16C897.993 561.944 906.571 552.101 920.739 546.056C911.42 554.935 901.486 563.106 890.171 569.323L889.267 570.099C890.643 572.456 905.768 577.505 909.321 578.436C919.938 581.219 930.925 581.384 941.164 577.107C945.924 575.119 950.539 572.636 955.44 571.017C964.582 567.997 973.891 567.872 983.271 569.732C972.7 556.622 962.038 545.086 946.76 537.404C942.283 535.153 937.516 533.088 932.486 532.548C930.165 532.299 927.763 532.467 925.45 532.704ZM757.033 645.465C768.249 659.548 786.216 676.572 805.065 678.529C813.578 679.412 821.315 678.535 829.667 681.256C844.68 671.048 860.182 666.746 877.82 663.663C863.737 669.307 847.038 673.941 835.613 684.286C840.539 687.138 845.572 688.551 851.123 689.749C852.412 689.979 854.672 690.598 855.893 690.247C859.896 689.097 864.564 684.719 868.158 682.412C879.793 674.942 894.808 668.902 908.733 668.164C893.977 662.992 878.551 657.1 863.006 654.886C850.35 653.083 837.45 652.989 824.691 652.495C809.973 651.926 795.395 651.057 780.753 649.378C772.877 648.475 764.677 647.621 757.033 645.465ZM674.569 451.12C658.224 459.635 636.459 474.532 630.623 493.078C626.132 507.35 630.349 541.181 630.456 557.699Q641.511 549.793 651.113 540.174C663.395 527.981 666.15 527.634 668.899 509.849C664.127 498.905 658.312 487.806 654.349 476.58C660.867 485.241 665.788 494.394 670.831 503.952C671.703 500.86 672.6 497.792 672.868 494.578C673.65 485.22 672.337 475.864 673.238 466.444C673.466 464.062 675.341 452.549 674.569 451.12ZM492.319 102.21Q482.068 106.558 472.497 112.25C472.132 112.626 471.562 112.956 471.143 113.255C463.441 118.762 455.149 125.511 453.751 135.496C451.403 152.267 471.452 167.962 481.917 178.695C488.903 185.859 495.548 192.828 501.562 200.853C500.765 165.251 504.738 158.891 484.364 127.087C491.826 135.21 497.805 143.673 503.503 153.084C501.962 143.993 495.764 108.276 492.319 102.21ZM428.172 406.273C424.942 411.239 421.555 415.712 417.305 419.857C409.285 427.677 400.561 433.167 395.85 443.748C398.75 449.445 401.576 457.114 405.796 461.823C409.705 466.184 421.876 471.476 427.405 474.847Q436.152 480.275 444.451 486.365C450.65 490.866 456.814 495.771 463.595 499.357C459.404 486.269 436.317 413.663 428.172 406.273ZM776.487 614.415C764.866 621.173 752.235 624.945 738.885 626.379C764.338 641.523 796.657 642.441 825.497 644.016C834.231 644.494 843.32 644.518 851.94 646.048C868.289 648.298 871.877 645.727 887.524 644.235C871.963 640.093 855.881 639.114 839.882 637.923C830.333 637.211 820.513 636.848 811.251 634.223C805.664 632.64 800.161 629.782 795.207 626.797C791.719 624.695 779.361 614.743 776.487 614.415ZM859.79 744.573Q847.831 747.288 836.145 751.004Q824.458 754.719 813.127 759.409C821.925 765.817 829.697 771.923 840.195 775.29C850.917 776.915 860.353 775.93 870.746 772.729C875.248 766.46 879.209 759.845 884.135 753.884C877.617 750.423 867.37 743.805 859.79 744.573ZM703.261 593.1C692.443 596.666 684.402 604.078 675.297 610.543C685.218 610.139 694.986 609.846 704.81 611.665C718.126 614.13 726.765 619.334 741.065 617.799C751.411 616.626 760.678 614.715 769.77 609.44C747.09 604.197 727.423 590.791 703.261 593.1ZM846.851 261.67C836.332 263.172 824.941 265.736 818.128 274.652C813.051 281.296 810.765 289.88 808.512 297.8Q821.536 293.827 834.377 289.297C849.39 284.093 864.263 278.392 879.3 273.289C869.839 266.793 858.767 260.28 846.851 261.67ZM565.782 986.679L565.84 987.274C568.141 1009.62 591.418 1011.57 606.033 1023.52L606.621 1024L653.235 1024C645.713 1019.18 638.436 1012.75 630.261 1009.14C623.972 1006.36 616.981 1005.41 610.401 1003.49C594.855 998.973 580.288 993.947 565.782 986.679ZM649.689 293.584C632.277 297.338 606.536 300.989 592.392 311.819C597.276 312.456 602.081 313.156 606.902 314.196L634.166 319.836C640.528 321.094 647.122 322.023 653.351 323.79C653.229 314.972 653.889 302.125 651.189 293.843C650.166 293.389 650.67 293.44 649.689 293.584ZM675.082 231.825C666.9 240.951 661.78 251.808 662.523 264.263C662.971 271.768 664.763 279.537 666.749 286.787C669.864 285.431 672.703 283.44 675.394 281.38Q683.954 274.187 691.917 266.338C689.772 254.875 687.322 245.16 679.456 236.119C678.422 234.93 676.936 232.832 675.629 232.05C675.46 231.949 675.265 231.9 675.082 231.825ZM385.769 187.27C381.294 196.562 373.852 202.668 365.448 208.367Q367.982 217.368 369.97 226.505C370.997 231.169 372.234 243.896 374.258 247.115L374.752 246.403C383.738 233.605 397.085 225.511 394.043 207.718C393.113 202.278 389.921 191.044 385.769 187.27ZM695.138 301.219C696.728 314.17 698.881 324.844 705.852 336.066C708.278 329.046 710.743 322.177 714.221 315.588C712.117 326.375 709.439 336.308 715.026 346.543C716.227 347.655 716.514 348.052 718.154 348.414C720.831 344.828 722.84 336.374 724.603 331.89C727.461 324.62 730.648 317.45 733.68 310.25C720.854 307.689 706.6 309.075 695.416 301.407L695.138 301.219ZM586.608 166.401C592.684 181.612 596.917 197.541 601.446 213.262C606.759 210.19 612.221 207.248 617.272 203.757C620.765 201.13 624.017 198.45 626.836 195.089C614.332 182.399 603.488 172.875 586.608 166.401ZM871.486 221.145C858.76 223.26 846.812 228.986 833.878 229.77C830.769 238.324 825.842 247.601 824.386 256.531L824.803 257.289L825.215 257.22C842.23 250.383 852.138 245.971 864.273 231.827C867.056 228.583 870.147 225.243 872.114 221.432L871.486 221.145ZM629.711 200.263C623.68 210.189 613.65 215.129 603.77 220.594C603.823 228.807 602.181 235.647 599.024 243.239L604.264 240.624C617.923 231.844 628.209 220.424 637.402 207.168C634.889 204.81 632.413 202.407 629.711 200.263ZM801.783 490.787C782.829 492.794 761.157 491.009 743.511 498.319L749.424 500.509C762.853 505.141 776.172 505.903 790.256 505.974C793.302 502.721 800.923 495.043 801.783 490.787ZM812.56 226.876Q808.605 230.305 804.279 233.254Q799.954 236.203 795.316 238.631C800.694 242.668 807.493 246.938 812.248 251.632Q814.099 253.055 815.934 254.498C819.887 246.427 823.097 238.033 827.134 230.004C822.119 229.627 817.371 228.274 812.56 226.876ZM630.708 444.369C622.724 456.439 615.159 469.152 605.51 479.979C582.018 506.338 536.216 538.85 533.949 576.495L534.992 576.625L533.937 576.994L534.323 577.406Q535.599 572.893 536.931 568.397C545.843 544.97 557.594 527.249 578.284 512.626C576.341 514.933 573.166 517.292 571.69 519.77L572.073 520.075C576.957 518.03 583.715 506.864 587.284 502.63C593.26 495.539 599.982 489.105 605.989 482.035C612.563 474.298 618.026 466.003 623.538 457.505C626.01 453.693 629.106 449.668 630.851 445.497L630.708 444.369ZM641.132 210.335C636.694 218.601 631.581 226.137 625.986 233.645C630.657 231.832 635.686 230.955 640.624 230.206L641.545 230.082C646.186 229.48 654.299 230.829 658.157 229.26C657.931 225.211 646.26 214.912 643.152 212.128L641.132 210.335ZM617.308 571.583C598.276 584.221 581.042 598.131 576.27 621.671C575.964 623.177 575.865 625.728 574.746 626.827C573.491 623.757 577.195 612.441 578.585 609.1C581.609 601.832 586.849 595.713 591.727 589.627C590.259 590.766 588.721 591.868 587.354 593.127C577.369 602.118 572.61 613.739 571.883 627.017Q571.804 628.506 571.743 629.996L577.121 627.776C580.859 610.596 591.593 595.377 604.22 583.481C606.473 581.358 617.295 573.825 617.308 571.583ZM446.855 595.487C461.024 592.981 476.986 588.888 490.544 595.835C497.62 599.53 501.459 605.757 505.891 612.079C505.084 609.633 504.289 607.169 503.305 604.788C491.043 575.084 458.784 597.225 436.933 594.253C428.111 593.054 421.77 586.996 413.787 583.773C404.739 580.121 388.956 582.393 380.048 586.169L380.29 586.538C389.36 585.574 397.436 582.147 406.847 583.288C423.579 585.318 426.24 598.656 446.855 595.487ZM617.669 473.46C608.92 484.231 599.224 493.937 590.08 504.327C585.542 509.485 581.65 515.554 576.707 520.302C572.021 524.803 565.524 526.5 561.353 531.697C556.428 537.834 546.449 555.931 546.548 563.762C546.557 564.483 546.621 564.569 546.804 565.166C550.65 555.62 554.394 545.571 560.616 537.277C564.694 531.841 570.297 528.696 574.955 523.966C579.93 518.914 584.196 513.017 588.928 507.715C593.296 502.821 617.891 478.508 617.669 473.46ZM815.781 479.439C810.687 486.844 806.139 494.807 800.331 501.673C787.492 516.85 760.65 537.371 758.231 557.944L758.616 558.421C762.74 550.748 766.593 542.74 771.955 535.84C777.79 528.33 784.712 521.634 791.152 514.644Q796.966 508.452 802.184 501.75Q807.402 495.048 811.979 487.893C813.437 485.593 815.703 482.561 816.174 479.864L815.781 479.439ZM454.834 435.349C456.139 441.616 473.286 486.792 476.119 490.217C475.606 478.493 463.901 443.468 455.419 435.804C455.236 435.638 455.029 435.501 454.834 435.349ZM692.825 581.5C670.306 593.895 646.667 603.837 624.231 616.48C620.761 618.435 615.7 620.584 612.856 623.308L613.248 623.618C622.651 619.542 630.973 614.021 640.083 609.485C645.539 606.768 651.617 605.596 657.147 603.019C669.48 597.273 681.619 589.601 693.075 582.254L693.07 581.66L692.825 581.5ZM608.311 625.737C590.623 630.937 571.649 635.085 557.542 647.565C559.164 648.374 560.704 649.343 562.566 649.311C570.086 642.664 581.691 637.438 591.004 633.714C596.953 631.335 603.07 629.548 608.311 625.737ZM489.167 558.706C491.14 567.894 492.585 576.468 492.481 585.909C498.308 590.971 503.19 596.217 507.986 602.26C506.817 596.822 505.739 591.357 504.123 586.029C502.858 582.924 501.669 579.744 500.199 576.731C501.62 582.79 502.924 588.913 504.531 594.924C501.679 591.008 499.331 587.447 497.579 582.925C495.018 576.317 493.234 563.793 489.167 558.706ZM450.343 157.419C461.717 169.76 473.468 181.287 485.489 192.99C488.798 196.211 492.979 201.682 497.068 203.673C490.321 195.552 458.375 158.66 450.343 157.419ZM513.621 420.249C512.977 425.694 504.542 439.407 500.516 443.117C497.841 447.301 493.998 451.107 492.165 455.762L492.67 455.927C492.822 455.813 492.982 455.709 493.127 455.585C495.804 453.279 498.18 449.304 500.311 446.445C510.22 433.151 515.651 423.437 516.758 406.507C517.013 402.586 516.948 398.608 517.009 394.679C516.94 392.831 517.3 388.603 516.264 387.183C514.933 397.268 516.178 411.027 513.621 420.249ZM482.104 471.511C485.184 460.17 491.7 447.75 500.118 439.383C503.856 432.967 508.332 427.21 511.838 420.575C512.253 419.106 512.904 417.821 512.537 416.32C508.618 421.924 506.377 428.697 502.527 434.428C493.643 447.651 480.656 453.162 482.104 471.511ZM486.807 515.951C486.044 519.721 485.255 523.331 483.973 526.959L483.736 527.645L483.589 528.054C482.778 526.298 482.117 524.434 480.661 523.112L479.988 523.326C479.04 529.577 484.906 536.024 487.972 540.957C489.371 543.209 490.459 545.696 491.551 548.109L492.377 549.592L492.69 549.335C491.817 543.965 490.513 538.673 489.622 533.301C489.154 534.869 489.007 536.338 487.833 537.501C486.56 536.628 485.988 535.353 485.252 534.042C486.07 528.712 488.175 521.561 487.09 516.262L486.807 515.951ZM634.694 473.411C631.176 479.598 617.299 501.534 618.922 507.142C619.049 507.582 619.194 508.016 619.348 508.447C621.099 503.216 624.535 498.722 627.017 493.824C628.522 490.854 635.151 475.771 634.694 473.411ZM525.273 579.399C522.838 591.651 522.65 603.824 523.507 616.249L523.925 616.481C524.72 610.296 527.747 583.963 525.273 579.399ZM501.423 547.338C502.968 553.055 508.581 572.08 512.553 575.166C510.835 568.698 506.273 551.053 501.423 547.338ZM481.674 486.931C479.239 493.991 479.862 507.836 482.997 514.725C483.477 515.78 483.921 516.6 484.922 517.235C483.593 507.41 480.762 497.241 482.17 487.312L481.674 486.931ZM518.504 380.512L518.468 394.053L518.551 399.449C519.312 403.16 519.359 407.225 519.634 411.015L520.171 411.15C521.99 403.581 520.31 388.073 518.504 380.512Z"/>
	<path fill="#F1F0BE" d="M505.162 894.89C505.502 895.324 505.596 895.387 505.809 895.985C506.633 898.297 506.479 901.898 506.966 904.467C510.637 923.844 510.324 933.475 502.794 952.191L502.38 952.274C501.632 949.09 506.252 936.147 506.936 931.666C507.553 927.622 507.802 923.439 507.367 919.362C506.53 911.498 502.835 902.743 505.162 894.89Z"/>
	<path fill="#F1F0BE" d="M490.244 881.825C494.964 897.309 488.216 917.223 483.078 931.975L482.983 932.056L482.632 931.739C483.734 922.804 485.736 913.995 487.142 905.101C488.366 897.36 489.02 889.555 490.244 881.825Z"/>
	<path fill="#F1F0BE" d="M537.853 690.042C541.373 674.283 546.162 659.478 557.542 647.565C559.164 648.374 560.704 649.343 562.566 649.311C561.79 650.496 560.029 651.745 559 652.78C555.656 656.144 552.244 659.617 549.809 663.715C544.874 672.022 542.961 682.041 537.853 690.042Z"/>
	<path fill="#F1F0BE" d="M592.677 645.614L593.192 645.687C592.527 646.883 577.861 654.319 575.237 656.136C568.1 661.078 563.282 667.98 556.861 673.65L556.3 674.14C561.517 664.786 569.767 658.319 577.905 651.648C567.743 656.071 561.051 662.27 554.721 671.296C551.519 676.558 548.779 682.091 547.052 688.021C545.663 692.789 544.854 697.865 542.671 702.349C543.585 690.807 547.718 680.449 554.028 670.76C563.304 656.514 576.287 649.127 592.677 645.614Z"/>
	<path fill="#F1F0BE" d="M512.243 640.929C512.702 641.42 512.677 641.763 512.675 642.459C512.645 652.793 504.835 681.833 497.707 688.232C493.556 691.958 489.338 691.803 484.153 691.435L483.862 691.172L483.997 690.621C486.424 689.578 489.141 688.565 491.4 687.199C494.449 685.355 496.841 681.912 498.499 678.816C500.946 674.245 502.253 669.067 504.053 664.218C506.927 656.475 510.134 648.937 512.243 640.929Z"/>
	<path fill="#F1F0BE" d="M522.858 766.414C522.959 770.658 521.581 775.547 520.842 779.754C519.536 787.181 518.729 794.416 518.997 801.976C519.733 822.766 526.851 842.648 525.184 863.733L524.802 863.712L524.56 861.933C523.298 855.205 523.248 848.236 522.002 841.485C519.32 826.951 512.33 810.919 514.505 795.998C515.948 786.095 520.405 776.195 522.858 766.414Z"/>
	<path fill="#F1F0BE" d="M671.063 688.527C673.462 688.439 676.554 688.27 678.776 689.261L678.527 689.857Q678.014 689.905 677.503 689.966C671.065 690.738 664.384 692.203 658.66 695.353C650.677 699.747 644.612 707.485 638.44 714.035C630.88 722.06 623.285 730.158 614.307 736.638C608.81 740.606 602.574 743.554 596.37 746.232C575.719 755.147 569.945 757.569 555.739 775.383C557.024 772.194 558.322 769.224 560.1 766.272C563.643 761.225 569.362 757.802 574.279 754.212C568.436 756.321 563.387 759.438 558.063 762.573C566.004 754.702 576.271 752.634 586.429 748.908C594.211 746.054 602.248 742.789 609.258 738.36C632.824 723.473 642.316 697.203 671.063 688.527Z"/>
	<path fill="#F1F0BE" d="M404.404 664.422C411.546 665.942 419.243 670.816 424.604 671.96C423.917 671.251 423.268 670.513 422.614 669.773C422.76 669.778 422.906 669.772 423.05 669.788C431.628 670.733 448.464 682.575 457.357 686.674C465.512 690.433 474.07 693.134 482.055 697.306C485.58 699.149 490.619 701.602 493.217 704.602C499.913 712.331 504.245 720.35 504.628 730.735Q504.066 728.591 503.438 726.465C499.708 713.994 490.443 703.07 479.093 696.905C470.355 692.55 460.718 689.962 451.762 685.985C444.269 682.657 437.104 677.669 429.471 674.861C436.773 679.912 444.051 685.153 451.704 689.654C457.027 692.785 462.747 695.253 467.927 698.616L468.515 699.002C465.081 698.07 462.082 696.899 458.925 695.256C451.778 691.535 445.266 686.58 438.334 682.464C429.659 677.314 420.59 673.204 411.463 668.955C408.837 667.733 406.573 666.371 404.404 664.422Z"/>
	<path fill="#F1F0BE" d="M273.197 679.724C276.739 679.267 280.527 679.593 284.113 679.424C290.29 679.132 296.494 678.222 302.546 676.969C324.345 672.455 344.584 664.434 367.126 662.721C394.468 660.643 410.287 666.106 430.866 683.801C426.028 681.449 421.677 678.139 417.006 675.473C409.188 671.012 400.567 668.412 391.921 666.104C401.449 671.347 412.294 673.922 421.124 680.443C406.772 675.571 394.045 666.844 378.672 665.29C373.414 664.753 358.547 664.904 354.052 666.839C343.539 667.628 332.528 670.381 322.406 673.262C306.181 677.88 290.245 683.986 273.197 679.724Z"/>
	<path fill="#F1F0BE" d="M523.201 639.876C527.258 646.246 516.965 685.042 517.106 695.347C517.208 702.755 518.8 710.064 520.561 717.234C521.516 721.12 523.275 724.953 523.154 729.014C523.149 729.168 523.14 729.321 523.133 729.474L523.999 729.01L522.98 729.242C523.156 721.141 514.379 710.837 509.32 705.085C520.951 734.793 517.718 752.224 509.551 781.956C506.933 791.487 504.563 800.211 504.392 810.19C508.609 816.534 515.29 836.318 517.071 843.737C520.076 856.256 517.816 868.389 518.652 881.022C519.235 889.824 521.801 898.167 523.469 906.777C527.402 927.078 520.626 945.536 510.15 962.694C511.549 957.572 514.007 952.66 515.949 947.719C521.154 934.474 523.267 919.054 521.218 904.945C520.029 896.752 518.098 888.727 517.404 880.456C516.332 867.702 518.719 854.537 515.7 841.971C514.13 835.431 511.164 829.262 508.503 823.112C506.859 819.213 505.637 815.157 504.347 811.131C504.81 826.905 508.816 842.449 508.785 858.229C508.758 872.324 503.502 885.372 500.714 898.992C499.115 906.802 499.023 914.713 498.07 922.593C496.368 936.66 491.22 953.418 480.885 963.62C489.107 948.158 495.098 932.185 495.993 914.526C496.261 909.24 494.947 902.876 496.007 897.81C496.981 893.148 498.785 888.51 500.184 883.95C503.73 872.39 506.235 860.401 505.742 848.252C505.132 833.205 498.058 817.299 499.737 802.599C500.406 796.75 502.623 791.219 504.188 785.573C509.196 767.509 514.873 748.086 512.464 729.188C510.762 715.837 505.135 707.799 494.652 699.759C498.1 699.436 500.977 699.282 503.659 696.803C511.282 689.758 519.98 664.341 522.003 653.789C522.872 649.26 522.941 644.477 523.201 639.876Z"/>
</svg>
